<svg width="128" height="128" viewBox="0 0 128 128" fill="none" xmlns="http://www.w3.org/2000/svg">
<rect width="128" height="128" fill="#535971"/>
<path fill-rule="evenodd" clip-rule="evenodd" d="M67 103H61C60.136 103 59.311 102.599 58.741 101.906L57.013 99.7917H70.987L69.259 101.906C68.689 102.599 67.864 103 67 103ZM72.601 93.375C73.462 93.375 74.161 94.0937 74.161 94.9792C74.161 95.8647 73.462 96.5833 72.601 96.5833H55.399C54.538 96.5833 53.839 95.8647 53.839 94.9792C53.839 94.0937 54.538 93.375 55.399 93.375H72.601ZM63.988 38.8333C72.937 38.8333 82 45.1538 82 57.2299C82 63.4445 79.09 68.8505 76.279 74.0801C73.558 79.13 70.75 84.35 70.747 90.1667H73.75C73.75 79.6241 85 70.5862 85 57.2299C85 43.3057 74.494 35.625 63.988 35.625C53.494 35.625 43 43.2961 43 57.2299C43 70.5862 54.25 79.6241 54.25 90.1667H57.247C57.25 84.35 54.439 79.13 51.724 74.0801C48.91 68.8505 46 63.4445 46 57.2299C46 45.1538 55.051 38.8333 63.988 38.8333V38.8333ZM92.272 64.3652C93.025 64.731 93.358 65.6839 93.016 66.4892C92.674 67.2945 91.786 67.6538 91.03 67.288L88.3 65.9598C87.544 65.594 87.211 64.6444 87.553 63.8359C87.895 63.0306 88.786 62.6745 89.539 63.0402L92.272 64.3652V64.3652ZM35.728 64.3652C34.975 64.731 34.642 65.6839 34.984 66.4892C35.326 67.2945 36.214 67.6538 36.97 67.288L39.7 65.9598C40.456 65.594 40.789 64.6444 40.447 63.8359C40.105 63.0306 39.214 62.6745 38.461 63.0402L35.728 64.3652V64.3652ZM92.5 54.875H89.5C88.672 54.875 88 54.1563 88 53.2708C88 52.3853 88.672 51.6667 89.5 51.6667H92.5C93.328 51.6667 94 52.3853 94 53.2708C94 54.1563 93.328 54.875 92.5 54.875ZM38.5 51.6667C39.328 51.6667 40 52.3853 40 53.2708C40 54.1563 39.328 54.875 38.5 54.875H35.5C34.672 54.875 34 54.1563 34 53.2708C34 52.3853 34.672 51.6667 35.5 51.6667H38.5ZM88.954 41.7561C89.635 41.2492 89.806 40.2514 89.332 39.5231C88.861 38.7948 87.925 38.6152 87.244 39.1189L84.781 40.9476C84.1 41.4545 83.932 42.4523 84.403 43.1806C84.874 43.9089 85.81 44.0886 86.491 43.5849L88.954 41.7561ZM39.046 41.7561C38.365 41.2492 38.194 40.2514 38.668 39.5231C39.139 38.7948 40.075 38.6152 40.756 39.1189L43.219 40.9476C43.9 41.4545 44.068 42.4523 43.597 43.1806C43.126 43.9089 42.19 44.0886 41.509 43.5849L39.046 41.7561V41.7561ZM79.045 32.0252C79.447 31.252 79.189 30.2735 78.466 29.8436C77.743 29.4105 76.828 29.6896 76.426 30.4596L74.962 33.2605C74.557 34.0337 74.818 35.0122 75.538 35.4453C76.261 35.8752 77.176 35.5993 77.581 34.8261L79.045 32.0252V32.0252ZM48.955 32.0252C48.553 31.252 48.811 30.2735 49.534 29.8436C50.257 29.4105 51.172 29.6896 51.574 30.4596L53.038 33.2605C53.443 34.0337 53.182 35.0122 52.462 35.4453C51.739 35.8752 50.824 35.5993 50.419 34.8261L48.955 32.0252V32.0252ZM65.5 27.6042C65.5 26.7187 64.828 26 64 26C63.172 26 62.5 26.7187 62.5 27.6042V30.8125C62.5 31.698 63.172 32.4167 64 32.4167C64.828 32.4167 65.5 31.698 65.5 30.8125V27.6042Z" fill="#FFD600"/>
</svg>
